<svg width="16" height="16" viewBox="0 0 16 16" fill="none" xmlns="http://www.w3.org/2000/svg">
<g clip-path="url(#clip0_4_186)">
<path d="M9.50002 0.12L10.1 0.253333L10.5867 0.426667L10.98 0.626667L11.28 0.84L11.5067 1.06667L11.6734 1.29333L11.78 1.51333L11.8467 1.71333L11.8734 1.88667L11.8867 2.02L11.88 2.10667V5.66667L11.8467 6.08667L11.76 6.45333L11.62 6.76L11.4467 7.01333L11.2467 7.22L11.0267 7.38667L10.7934 7.51333L10.56 7.60667L10.34 7.67333L10.14 7.72L9.96669 7.74667L9.82669 7.76H5.84669L5.38669 7.79333L4.99336 7.88667L4.66002 8.03333L4.38669 8.21333L4.16669 8.42667L3.98669 8.66L3.85336 8.9L3.75336 9.14667L3.68669 9.38L3.64002 9.59333L3.61336 9.77333L3.60002 9.91333V11.9533H2.11336L1.97336 11.9333L1.78669 11.8867L1.57336 11.8067L1.34002 11.6867L1.10002 11.5133L0.860022 11.2733L0.626689 10.9667L0.413355 10.5733L0.226689 10.0867L0.0866886 9.5L-0.0066447 8.8L-0.039978 7.98L2.1973e-05 7.16667L0.106689 6.47333L0.266689 5.89333L0.480022 5.42L0.720022 5.04L0.986689 4.74667L1.26669 4.52667L1.54669 4.36667L1.81336 4.26L2.05336 4.19333L2.26669 4.16L2.42669 4.15333H2.53336L2.57336 4.16H8.01336V3.60667H4.12002L4.11336 1.77333L4.10002 1.52667L4.13336 1.3L4.20669 1.09333L4.32002 0.906667L4.48669 0.733333L4.69336 0.58L4.94669 0.446667L5.24002 0.326667L5.58002 0.226667L5.96669 0.146667L6.39336 0.08L6.86669 0.04L7.38002 0.0133333L7.94002 0L8.78669 0.0333333L9.50002 0.12ZM5.30002 1.44L5.14669 1.66L5.09336 1.93333L5.14669 2.20667L5.30002 2.43333L5.52002 2.58L5.79336 2.64L6.06669 2.58L6.28669 2.43333L6.44002 2.20667L6.49336 1.93333L6.44002 1.66L6.28669 1.44L6.06669 1.29333L5.79336 1.23333L5.52002 1.29333L5.30002 1.44ZM14.0267 4.07333L14.2134 4.11333L14.4267 4.19333L14.66 4.31333L14.9 4.49333L15.14 4.72667L15.3734 5.04L15.5867 5.43333L15.7734 5.92L15.9134 6.50667L16.0067 7.2L16.04 8.02L16 8.84L15.8934 9.53333L15.7334 10.1067L15.52 10.58L15.28 10.96L15.0134 11.26L14.7334 11.48L14.4534 11.64L14.1867 11.7467L13.9467 11.8067L13.7334 11.84L13.5734 11.8533L13.4667 11.8467H7.98669V12.3933H11.88L11.8867 14.2333L11.9 14.4733L11.8667 14.7L11.7934 14.9067L11.68 15.1L11.5134 15.2667L11.3067 15.4267L11.0534 15.56L10.76 15.6733L10.42 15.7733L10.0334 15.86L9.60669 15.92L9.13336 15.9667L8.62002 15.9933L8.06002 16L7.21336 15.9733L6.50002 15.88L5.90002 15.7467L5.41336 15.58L5.02002 15.38L4.72002 15.16L4.49336 14.9333L4.32669 14.7067L4.22002 14.4867L4.15336 14.2867L4.12669 14.12L4.11336 13.9867L4.12002 13.9V10.34L4.15336 9.91333L4.24002 9.55333L4.38002 9.24667L4.55336 8.99333L4.75336 8.78L4.97336 8.62L5.20669 8.48667L5.44002 8.39333L5.66002 8.32667L5.86002 8.28667L6.03336 8.26L6.17336 8.24667L6.26002 8.24H10.1534L10.6134 8.20667L11.0067 8.11333L11.34 7.97333L11.6134 7.78667L11.8334 7.57333L12.0134 7.34L12.1467 7.1L12.2467 6.86L12.3134 6.62667L12.36 6.41333L12.3867 6.22667L12.4 6.08667V4.04667H13.7934L13.8867 4.05333L14.0267 4.07333ZM9.71336 13.5733L9.56002 13.7933L9.50669 14.0667L9.56002 14.34L9.71336 14.56L9.93336 14.7133L10.2067 14.7667L10.48 14.7133L10.7 14.56L10.8534 14.34L10.9067 14.0667L10.8534 13.7933L10.7 13.5733L10.48 13.42L10.2067 13.3667L9.93336 13.42L9.71336 13.5733Z" fill="black"/>
</g>
<defs>
<clipPath id="clip0_4_186">
<rect width="16" height="16" fill="white"/>
</clipPath>
</defs>
</svg>
