<svg width="16" height="16" viewBox="0 0 16 16" fill="none" xmlns="http://www.w3.org/2000/svg">
<g clip-path="url(#clip0_4_192)">
<path d="M1.20736 6.82059C1.17602 6.82059 1.16869 6.80526 1.18402 6.78126L1.34802 6.57126C1.36336 6.54793 1.40202 6.53259 1.43336 6.53259H4.21469C4.24536 6.53259 4.25336 6.55593 4.23802 6.57926L4.10536 6.78126C4.09002 6.80526 4.05069 6.82793 4.02736 6.82793L1.20736 6.82059ZM0.0313582 7.53726C2.48651e-05 7.53726 -0.00797514 7.52193 0.00802486 7.49859L0.171358 7.28793C0.186692 7.26459 0.226025 7.24926 0.257358 7.24926H3.80936C3.84069 7.24926 3.85602 7.27259 3.84802 7.29593L3.78602 7.48259C3.77802 7.51393 3.74736 7.52926 3.71602 7.52926L0.0313582 7.53726ZM1.91669 8.25393C1.88536 8.25393 1.87736 8.23059 1.89336 8.20726L2.00202 8.01259C2.01736 7.98926 2.04869 7.96593 2.08002 7.96593H3.63802C3.66936 7.96593 3.68469 7.98926 3.68469 8.0206L3.66936 8.20726C3.66936 8.23859 3.63802 8.26193 3.61469 8.26193L1.91669 8.25393ZM10.0027 6.68059C9.51202 6.80526 9.17669 6.89859 8.69403 7.02326C8.57669 7.05393 8.56936 7.06193 8.46736 6.94526C8.35136 6.81259 8.26536 6.72726 8.10202 6.64926C7.61069 6.40793 7.13536 6.47793 6.69203 6.76593C6.16203 7.10859 5.88936 7.61526 5.89736 8.24593C5.90469 8.86926 6.33336 9.38326 6.94869 9.46926C7.47869 9.53926 7.92202 9.35259 8.27336 8.95593C8.34336 8.86926 8.40536 8.77593 8.48336 8.66659H6.98003C6.81669 8.66659 6.77736 8.56526 6.83203 8.43326C6.93336 8.19193 7.12002 7.7866 7.22936 7.58393C7.24605 7.54638 7.27339 7.51456 7.30799 7.4924C7.3426 7.47024 7.38294 7.45872 7.42402 7.45926H10.2594C10.244 7.66993 10.244 7.87993 10.2127 8.09059C10.132 8.64521 9.91229 9.17039 9.57403 9.61726C9.01336 10.3573 8.28069 10.8173 7.35403 10.9413C6.59069 11.0426 5.88136 10.8946 5.25869 10.4279C4.68202 9.99126 4.35469 9.41459 4.26936 8.69793C4.16802 7.84859 4.41736 7.08526 4.93136 6.41526C5.48469 5.69126 6.21669 5.23126 7.11269 5.06859C7.84469 4.93526 8.54603 5.02193 9.17669 5.44926C9.59003 5.72259 9.88536 6.09593 10.0807 6.54793C10.1274 6.61793 10.096 6.65726 10.0027 6.68126M12.5814 10.9886C11.872 10.9726 11.2254 10.7699 10.68 10.3026C10.2264 9.92025 9.92731 9.3859 9.83869 8.79926C9.69869 7.91926 9.94003 7.13993 10.47 6.44659C11.0387 5.69859 11.724 5.30926 12.6514 5.14659C13.446 5.00659 14.194 5.08326 14.8714 5.54326C15.4867 5.96326 15.8687 6.53259 15.97 7.27993C16.102 8.33193 15.7987 9.18859 15.074 9.92126C14.56 10.4433 13.9287 10.7699 13.204 10.9179C12.994 10.9579 12.784 10.9646 12.5814 10.9886ZM14.4347 7.84193C14.4274 7.73993 14.4274 7.66193 14.412 7.58393C14.272 6.8126 13.5627 6.37726 12.8227 6.54793C12.098 6.71126 11.6307 7.17126 11.4594 7.90326C11.3194 8.51126 11.6154 9.12659 12.176 9.37659C12.6047 9.56326 13.0327 9.53926 13.446 9.32993C14.0614 9.00993 14.396 8.51126 14.4354 7.84126L14.4347 7.84193Z" fill="black"/>
</g>
<defs>
<clipPath id="clip0_4_192">
<rect width="16" height="16" fill="white"/>
</clipPath>
</defs>
</svg>
