<svg width="24" height="24" viewBox="0 0 24 24" fill="none" xmlns="http://www.w3.org/2000/svg">
<path d="M15.28 5.21995C15.4205 5.36058 15.4994 5.5512 15.4994 5.74995C15.4994 5.9487 15.4205 6.13933 15.28 6.27995L9.56001 12L15.28 17.7199C15.3787 17.8116 15.4509 17.9282 15.4889 18.0575C15.5269 18.1867 15.5294 18.3238 15.496 18.4544C15.4626 18.5849 15.3947 18.704 15.2993 18.7991C15.2039 18.8943 15.0846 18.9619 14.954 18.995C14.8236 19.0284 14.6867 19.026 14.5575 18.9882C14.4283 18.9504 14.3118 18.8784 14.22 18.78L7.97001 12.53C7.82956 12.3893 7.75067 12.1987 7.75067 12C7.75067 11.8012 7.82956 11.6106 7.97001 11.47L14.22 5.21995C14.3606 5.0795 14.5513 5.00061 14.75 5.00061C14.9488 5.00061 15.1394 5.0795 15.28 5.21995Z" fill="black"/>
</svg>
