<svg width="24" height="24" viewBox="0 0 24 24" fill="none" xmlns="http://www.w3.org/2000/svg">
<path d="M2.82799 4.32808C5.25999 1.89608 9.49999 1.88108 11.935 4.31708C11.959 4.34108 11.981 4.36708 12.002 4.39308C13.393 3.31508 14.995 2.50708 16.779 2.50308C17.6004 2.50011 18.4142 2.65984 19.1735 2.97308C19.9328 3.28632 20.6226 3.74685 21.203 4.32808C21.762 4.88808 22.226 5.49308 22.543 6.25008C22.861 7.00608 23.013 7.86708 23.011 8.91308C23.011 11.8851 20.964 14.7211 18.742 16.9871C16.644 19.1271 14.235 20.9111 12.768 21.9961L12.457 22.2261C12.3273 22.3224 12.17 22.3745 12.0085 22.3745C11.8469 22.3745 11.6897 22.3224 11.56 22.2261L11.248 21.9961C9.78199 20.9111 7.37299 19.1271 5.27499 16.9871C3.05499 14.7241 1.01099 11.8921 1.00499 8.92408C0.978283 8.07405 1.12629 7.22757 1.43986 6.43703C1.75343 5.64649 2.22588 4.9287 2.82799 4.32808ZM10.861 5.37008C9.01499 3.53608 5.73699 3.54708 3.89199 5.39208C3.43102 5.85155 3.07024 6.40154 2.83238 7.00736C2.59452 7.61319 2.48475 8.26172 2.50999 8.91208C2.50999 11.2441 4.15999 13.7021 6.34899 15.9341C8.29599 17.9201 10.533 19.5941 12.009 20.6861C12.7381 20.1503 13.4579 19.6019 14.168 19.0411L12.028 17.0671C11.9554 17.0001 11.8966 16.9195 11.8552 16.8298C11.8137 16.7402 11.7903 16.6432 11.7863 16.5445C11.7823 16.4458 11.7978 16.3473 11.8319 16.2545C11.866 16.1618 11.918 16.0767 11.985 16.0041C12.052 15.9315 12.1326 15.8727 12.2223 15.8313C12.3119 15.7898 12.4089 15.7664 12.5076 15.7624C12.6063 15.7584 12.7048 15.7739 12.7975 15.808C12.8903 15.8421 12.9754 15.8941 13.048 15.9611L15.343 18.0791C15.959 17.5591 16.585 16.9991 17.193 16.4071L15.033 14.4151C14.8937 14.2779 14.8132 14.0919 14.8085 13.8965C14.8039 13.701 14.8754 13.5114 15.008 13.3678C15.1407 13.2241 15.3239 13.1377 15.5191 13.1267C15.7143 13.1158 15.9061 13.1812 16.054 13.3091L18.242 15.3291C18.7908 14.7366 19.3011 14.1096 19.77 13.4521L19.185 12.8661L17.534 11.2141C16.456 10.1401 14.697 10.1591 13.599 11.2571C13.22 11.6371 12.839 12.0151 12.467 12.3831C11.327 13.5071 9.50699 13.4601 8.39699 12.3401C7.90799 11.8451 7.41699 11.3521 6.92199 10.8581C6.78851 10.7243 6.71029 10.5452 6.70287 10.3564C6.69546 10.1676 6.75941 9.98289 6.88199 9.83908C7.11599 9.56308 7.36499 9.26308 7.62699 8.94608C8.55499 7.82608 9.64999 6.50408 10.861 5.37008ZM20.586 12.1401C21.165 11.0601 21.506 9.97308 21.506 8.91208C21.508 8.01308 21.378 7.36008 21.156 6.83208C20.936 6.30608 20.605 5.85808 20.139 5.39208C19.699 4.95086 19.1758 4.60134 18.5997 4.36377C18.0236 4.1262 17.4061 4.0053 16.783 4.00808C15.123 4.01208 13.533 4.95908 12.013 6.35408C10.833 7.43808 9.77999 8.70708 8.82499 9.86008L8.47399 10.2831C8.80499 10.6151 9.13699 10.9471 9.46699 11.2811C9.72079 11.5425 10.068 11.6925 10.4323 11.6981C10.7966 11.7037 11.1482 11.5645 11.41 11.3111C11.78 10.9461 12.158 10.5711 12.535 10.1931C14.197 8.53008 16.908 8.46708 18.595 10.1481C19.155 10.7061 19.715 11.2681 20.253 11.8061L20.586 12.1401Z" fill="black"/>
</svg>
