<svg width="21" height="21" viewBox="0 0 21 21" fill="none" xmlns="http://www.w3.org/2000/svg">
<g clip-path="url(#clip0_4_314)">
<path d="M0.875 10.5C0.875 5.18438 5.18438 0.875 10.5 0.875C15.8156 0.875 20.125 5.18438 20.125 10.5C20.125 15.8156 15.8156 20.125 10.5 20.125C5.18438 20.125 0.875 15.8156 0.875 10.5ZM15.12 8.12C15.2359 7.99552 15.2989 7.83098 15.296 7.66095C15.2931 7.49092 15.2243 7.32865 15.1042 7.20825C14.9838 7.08816 14.8216 7.01943 14.6516 7.01649C14.4815 7.01355 14.317 7.07664 14.1925 7.1925L8.96875 12.4162L6.8075 10.255C6.68302 10.1391 6.51848 10.0761 6.34845 10.079C6.17842 10.0819 6.01615 10.1507 5.89575 10.2707C5.77566 10.3912 5.70693 10.5534 5.70399 10.7234C5.70105 10.8935 5.76414 11.058 5.88 11.1825L8.505 13.8075C8.62805 13.9304 8.79484 13.9994 8.96875 13.9994C9.14266 13.9994 9.30945 13.9304 9.4325 13.8075L15.12 8.12Z" fill="black"/>
</g>
<defs>
<clipPath id="clip0_4_314">
<rect width="21" height="21" fill="white"/>
</clipPath>
</defs>
</svg>
