<svg width="24" height="24" viewBox="0 0 24 24" fill="none" xmlns="http://www.w3.org/2000/svg">
<path d="M15.22 4.97001C15.3606 4.82956 15.5513 4.75067 15.75 4.75067C15.9488 4.75067 16.1394 4.82956 16.28 4.97001L22.78 11.47C22.9205 11.6106 22.9994 11.8013 22.9994 12C22.9994 12.1988 22.9205 12.3894 22.78 12.53L16.28 19.03C16.1883 19.1287 16.0717 19.2009 15.9425 19.2389C15.8132 19.2769 15.6761 19.2794 15.5456 19.246C15.4151 19.2126 15.296 19.1447 15.2008 19.0493C15.1057 18.9539 15.038 18.8346 15.005 18.704C14.9716 18.5736 14.9739 18.4367 15.0118 18.3075C15.0496 18.1783 15.1215 18.0618 15.22 17.97L21.19 12L15.22 6.03001C15.0796 5.88939 15.0007 5.69876 15.0007 5.50001C15.0007 5.30126 15.0796 5.11064 15.22 4.97001ZM8.78001 4.97001C8.92046 5.11064 8.99935 5.30126 8.99935 5.50001C8.99935 5.69876 8.92046 5.88939 8.78001 6.03001L2.81001 12L8.78001 17.97C8.87874 18.0617 8.95091 18.1783 8.98892 18.3075C9.02694 18.4368 9.02938 18.5739 8.99601 18.7044C8.96264 18.8349 8.89468 18.954 8.79929 19.0492C8.7039 19.1443 8.58462 19.212 8.45401 19.245C8.32364 19.2784 8.18666 19.2761 8.0575 19.2383C7.92834 19.2004 7.81175 19.1285 7.72001 19.03L1.22001 12.53C1.07956 12.3894 1.00067 12.1988 1.00067 12C1.00067 11.8013 1.07956 11.6106 1.22001 11.47L7.72001 4.97001C7.86064 4.82956 8.05126 4.75067 8.25001 4.75067C8.44876 4.75067 8.63939 4.82956 8.78001 4.97001Z" fill="black"/>
</svg>
