<svg width="16" height="16" viewBox="0 0 16 16" fill="none" xmlns="http://www.w3.org/2000/svg">
<path d="M12.78 5.22C12.8497 5.28956 12.9049 5.37218 12.9426 5.46312C12.9804 5.55406 12.9998 5.65155 12.9998 5.75C12.9998 5.84845 12.9804 5.94593 12.9426 6.03687C12.9049 6.12782 12.8497 6.21043 12.78 6.28L8.53001 10.53C8.46044 10.5997 8.37783 10.6549 8.28688 10.6926C8.19594 10.7303 8.09846 10.7498 8.00001 10.7498C7.90156 10.7498 7.80407 10.7303 7.71313 10.6926C7.62219 10.6549 7.53957 10.5997 7.47001 10.53L3.22001 6.28C3.07944 6.13943 3.00047 5.94879 3.00047 5.75C3.00047 5.65157 3.01986 5.5541 3.05753 5.46316C3.0952 5.37223 3.15041 5.2896 3.22001 5.22C3.28961 5.1504 3.37223 5.09519 3.46317 5.05752C3.55411 5.01985 3.65158 5.00047 3.75001 5.00047C3.94879 5.00047 4.13944 5.07943 4.28001 5.22L8.00001 8.939L11.72 5.22C11.7896 5.15033 11.8722 5.09507 11.9631 5.05736C12.0541 5.01965 12.1516 5.00024 12.25 5.00024C12.3485 5.00024 12.4459 5.01965 12.5369 5.05736C12.6278 5.09507 12.7104 5.15033 12.78 5.22Z" fill="black"/>
</svg>
