<svg width="19" height="19" viewBox="0 0 19 19" fill="none" xmlns="http://www.w3.org/2000/svg">
<path d="M9.5 16.9219L9.90969 17.7128C9.78308 17.7783 9.64258 17.8126 9.5 17.8126C9.35742 17.8126 9.21692 17.7783 9.09031 17.7128L9.08081 17.708L9.05944 17.6961C8.93508 17.6319 8.81234 17.5646 8.69131 17.4943C7.24397 16.6705 5.8785 15.7106 4.61344 14.6276C2.42844 12.7431 0 9.91562 0 6.53125C0 3.36775 2.47712 1.1875 5.04688 1.1875C6.88394 1.1875 8.49419 2.13987 9.5 3.58625C10.5058 2.13987 12.1161 1.1875 13.9531 1.1875C16.5229 1.1875 19 3.36775 19 6.53125C19 9.91562 16.5716 12.7431 14.3866 14.6276C13.0142 15.8009 11.5243 16.8292 9.94056 17.6961L9.91919 17.708L9.91206 17.7116H9.90969L9.5 16.9219ZM5.04688 2.96875C3.46038 2.96875 1.78125 4.351 1.78125 6.53125C1.78125 9.08438 3.6575 11.4523 5.77719 13.2786C6.93367 14.2678 8.18002 15.1468 9.5 15.9042C10.82 15.1468 12.0663 14.2678 13.2228 13.2786C15.3425 11.4523 17.2188 9.08438 17.2188 6.53125C17.2188 4.351 15.5396 2.96875 13.9531 2.96875C12.3227 2.96875 10.8549 4.13962 10.3562 5.88525C10.3037 6.07189 10.1916 6.23627 10.037 6.35334C9.88248 6.47041 9.69389 6.53377 9.5 6.53377C9.30611 6.53377 9.11752 6.47041 8.96296 6.35334C8.8084 6.23627 8.69633 6.07189 8.64381 5.88525C8.14506 4.13962 6.67731 2.96875 5.04688 2.96875Z" fill="black"/>
</svg>
