<svg width="16" height="16" viewBox="0 0 16 16" fill="none" xmlns="http://www.w3.org/2000/svg">
<path d="M1.705 8.00498C1.80284 7.99326 1.90203 8.00092 1.99691 8.02755C2.09179 8.05418 2.18049 8.09924 2.25794 8.16016C2.33539 8.22108 2.40008 8.29667 2.44831 8.3826C2.49653 8.46854 2.52735 8.56313 2.539 8.66098C2.66644 9.71498 3.09621 10.7096 3.77644 11.5247C4.45667 12.3398 5.35828 12.9407 6.37245 13.2547C7.38662 13.5687 8.46999 13.5825 9.49182 13.2944C10.5137 13.0062 11.4303 12.4285 12.131 11.631L10.927 10.427C10.8919 10.392 10.8681 10.3474 10.8584 10.2989C10.8487 10.2503 10.8536 10.2 10.8726 10.1543C10.8916 10.1085 10.9237 10.0694 10.9649 10.042C11.0061 10.0145 11.0545 9.9999 11.104 9.99998H14.75C14.8163 9.99998 14.8799 10.0263 14.9268 10.0732C14.9737 10.1201 15 10.1837 15 10.25V13.896C15.0001 13.9455 14.9855 13.9939 14.958 14.0351C14.9305 14.0763 14.8915 14.1084 14.8457 14.1274C14.8 14.1463 14.7497 14.1513 14.7011 14.1416C14.6525 14.1319 14.608 14.108 14.573 14.073L13.193 12.693C12.2922 13.6885 11.1243 14.4041 9.82827 14.7545C8.53225 15.1049 7.16282 15.0753 5.88315 14.6692C4.60347 14.2632 3.46751 13.4978 2.61061 12.4643C1.7537 11.4308 1.21199 10.1727 1.05 8.83998C1.03827 8.74214 1.04594 8.64295 1.07257 8.54807C1.09919 8.4532 1.14425 8.3645 1.20518 8.28705C1.2661 8.20959 1.34169 8.1449 1.42762 8.09668C1.51355 8.04845 1.60815 8.01763 1.706 8.00598L1.705 8.00498ZM8 2.49998C7.21801 2.49916 6.44488 2.66549 5.73242 2.98783C5.01996 3.31017 4.38462 3.78107 3.869 4.36898L5.073 5.57298C5.10805 5.60795 5.13194 5.65253 5.14162 5.70109C5.1513 5.74964 5.14635 5.79998 5.12739 5.84572C5.10843 5.89145 5.07632 5.93053 5.03513 5.95799C4.99393 5.98546 4.94551 6.00007 4.896 5.99998H1.25C1.1837 5.99998 1.12011 5.97364 1.07322 5.92676C1.02634 5.87988 1 5.81629 1 5.74998V2.10398C0.999912 2.05447 1.01453 2.00605 1.04199 1.96486C1.06945 1.92366 1.10853 1.89155 1.15427 1.87259C1.20001 1.85363 1.25034 1.84868 1.2989 1.85836C1.34745 1.86805 1.39204 1.89193 1.427 1.92698L2.807 3.30698C3.70775 2.31145 4.87572 1.59586 6.17173 1.24548C7.46775 0.895093 8.83718 0.924684 10.1169 1.33073C11.3965 1.73677 12.5325 2.50214 13.3894 3.53566C14.2463 4.56917 14.788 5.82724 14.95 7.15998C14.9736 7.35757 14.9178 7.55644 14.7947 7.71285C14.6717 7.86925 14.4916 7.97038 14.294 7.99398C14.0964 8.01759 13.8975 7.96173 13.7411 7.83871C13.5847 7.71569 13.4836 7.53557 13.46 7.33798C13.2982 6.00371 12.6535 4.77485 11.6475 3.8835C10.6416 2.99214 9.34405 2.49999 8 2.49998Z" fill="black"/>
</svg>
