<svg width="16" height="16" viewBox="0 0 16 16" fill="none" xmlns="http://www.w3.org/2000/svg">
<g clip-path="url(#clip0_4_189)">
<path d="M0 0H16V16H0V0ZM14.6893 12.184C14.5727 11.454 14.0973 10.8407 12.6873 10.2687C12.1967 10.0387 11.6513 9.87867 11.4893 9.50867C11.4287 9.28867 11.4193 9.16867 11.4587 9.03867C11.5587 8.608 12.0687 8.47867 12.4687 8.59867C12.7287 8.67867 12.9687 8.87867 13.1193 9.19867C13.8087 8.748 13.8087 8.748 14.2893 8.44867C14.1093 8.16867 14.02 8.048 13.8987 7.92867C13.4787 7.45867 12.9193 7.21867 12.0093 7.23933L11.5393 7.29867C11.0887 7.40867 10.6593 7.64867 10.3993 7.96867C9.63933 8.82933 9.85867 10.3293 10.7787 10.9493C11.6887 11.6293 13.0193 11.7787 13.1893 12.4193C13.3493 13.1993 12.6093 13.4493 11.8787 13.3593C11.338 13.2393 11.0387 12.9687 10.7087 12.4687L9.48867 13.1693C9.62867 13.4893 9.78867 13.6287 10.0287 13.9087C11.1887 15.0793 14.0887 15.0193 14.6093 13.2393C14.6287 13.1793 14.7693 12.7693 14.6587 12.1393L14.6893 12.184ZM8.70067 7.354H7.202C7.202 8.646 7.196 9.93 7.196 11.224C7.196 12.0453 7.238 12.7993 7.104 13.0313C6.884 13.4907 6.31733 13.432 6.06 13.3513C5.796 13.2207 5.662 13.0407 5.50667 12.7813C5.46467 12.7113 5.43333 12.6507 5.422 12.6507L4.20533 13.4007C4.40867 13.8207 4.70533 14.182 5.088 14.412C5.658 14.752 6.424 14.862 7.226 14.682C7.748 14.5313 8.198 14.2213 8.43333 13.7413C8.77333 13.1213 8.70133 12.3613 8.698 11.5107C8.706 10.1413 8.698 8.77133 8.698 7.39133L8.70067 7.354Z" fill="black"/>
</g>
<defs>
<clipPath id="clip0_4_189">
<rect width="16" height="16" fill="white"/>
</clipPath>
</defs>
</svg>
