<svg width="16" height="16" viewBox="0 0 16 16" fill="none" xmlns="http://www.w3.org/2000/svg">
<path d="M12.78 5.22C12.8497 5.28956 12.9049 5.37218 12.9426 5.46312C12.9803 5.55406 12.9997 5.65155 12.9997 5.75C12.9997 5.84845 12.9803 5.94593 12.9426 6.03687C12.9049 6.12782 12.8497 6.21043 12.78 6.28L8.52999 10.53C8.46043 10.5997 8.37781 10.6549 8.28687 10.6926C8.19593 10.7303 8.09844 10.7498 7.99999 10.7498C7.90154 10.7498 7.80406 10.7303 7.71311 10.6926C7.62217 10.6549 7.53956 10.5997 7.46999 10.53L3.21999 6.28C3.07943 6.13943 3.00046 5.94879 3.00046 5.75C3.00046 5.65157 3.01984 5.5541 3.05751 5.46316C3.09518 5.37223 3.15039 5.2896 3.21999 5.22C3.28959 5.1504 3.37222 5.09519 3.46316 5.05752C3.55409 5.01985 3.65156 5.00047 3.74999 5.00047C3.94878 5.00047 4.13943 5.07943 4.27999 5.22L7.99999 8.939L11.72 5.22C11.7896 5.15033 11.8722 5.09507 11.9631 5.05736C12.0541 5.01965 12.1515 5.00024 12.25 5.00024C12.3484 5.00024 12.4459 5.01965 12.5369 5.05736C12.6278 5.09507 12.7104 5.15033 12.78 5.22Z" fill="black"/>
</svg>
