<svg width="84" height="30" viewBox="0 0 84 30" fill="none" xmlns="http://www.w3.org/2000/svg">
<g clip-path="url(#clip0_4_383)">
<path d="M16.4453 13.7866V24.5013C16.4453 24.5759 16.4267 24.7066 16.3333 24.7439C16.3333 24.7439 14 26.4053 10.1547 26.4053C5.50667 26.4053 0 24.9493 0 15.3546C0 5.75993 4.816 3.78127 9.52 3.79993C13.5893 3.79993 15.232 4.7146 15.4933 4.8826C15.568 4.97593 15.6053 5.0506 15.6053 5.14394L14.8213 8.4666C14.8213 8.6346 14.6533 8.83994 14.448 8.78394C13.776 8.5786 12.768 8.16794 10.3973 8.16794C7.65333 8.16794 4.704 8.95193 4.704 15.1306C4.704 21.3093 7.504 22.0373 9.52 22.0373C11.2373 22.0373 11.8533 21.8319 11.8533 21.8319V17.5386H9.10933C8.904 17.5386 8.75467 17.3893 8.75467 17.2213V13.7866C8.75467 13.6186 8.904 13.4693 9.10933 13.4693H16.0907C16.296 13.4693 16.4453 13.6186 16.4453 13.7866ZM83.3653 18.1359C83.3653 24.5386 81.2933 26.3679 77.672 26.3679C74.6107 26.3679 72.968 24.8186 72.968 24.8186C72.968 24.8186 72.8933 25.6773 72.8 25.7893C72.744 25.9013 72.6507 25.9386 72.5387 25.9386H69.776C69.5893 25.9386 69.4213 25.7893 69.4213 25.6213L69.4587 4.8826C69.4587 4.7146 69.608 4.56527 69.776 4.56527H73.752C73.92 4.56527 74.0693 4.7146 74.0693 4.8826V11.9199C74.0693 11.9199 75.6 10.9306 77.84 10.9306L77.8213 10.8933C80.0613 10.8933 83.3653 11.7333 83.3653 18.1359ZM51.6693 4.6026C51.8373 4.6026 51.9867 4.75193 51.9867 4.91993V25.6586C51.9867 25.8266 51.8373 25.9759 51.6693 25.9759H47.6933C47.5253 25.9759 47.376 25.8266 47.376 25.6586L47.4133 16.7919H41.2347V25.6586C41.2347 25.8266 41.0853 25.9759 40.9173 25.9759H36.9413C36.792 25.9759 36.624 25.8266 36.624 25.6586V4.91993C36.624 4.75193 36.7733 4.6026 36.9413 4.6026H40.9173C41.0853 4.6026 41.2347 4.75193 41.2347 4.91993V12.5546H47.4133V4.91993C47.4133 4.75193 47.5627 4.6026 47.7307 4.6026H51.6693ZM67.088 11.3973C67.2933 11.3973 67.4427 11.5466 67.4427 11.7146L67.4053 25.6586C67.4053 25.8266 67.2933 25.9759 67.088 25.9759H64.5867C64.456 25.9759 64.3253 25.9013 64.288 25.8079C64.232 25.6959 64.1387 24.9679 64.1387 24.9679C64.1387 24.9679 62.0293 26.4053 59.4347 26.4053C56.28 26.4053 53.984 25.3786 53.984 21.2719V11.7333C53.984 11.5653 54.1333 11.4159 54.3013 11.4159H58.296C58.464 11.4159 58.6133 11.5653 58.6133 11.7333V20.5999C58.6133 21.9999 59.024 22.6346 60.424 22.6346C61.824 22.6346 62.8507 21.9066 62.8507 21.9066V11.7519C62.8507 11.5466 62.9627 11.3973 63.168 11.3973H67.088ZM34.5968 22.5431H34.6061C34.6823 22.5589 34.7505 22.6011 34.7986 22.6622C34.8468 22.7233 34.8718 22.7995 34.8693 22.8773V25.6773C34.8693 25.8079 34.8133 25.9386 34.7013 25.9759C34.5147 26.0693 33.32 26.3866 32.3307 26.3866C30.1653 26.3866 26.992 25.9199 26.992 21.3653V15.2426H24.92C24.752 15.2426 24.6027 15.0933 24.6027 14.8879V12.3493C24.6027 12.1999 24.696 12.0693 24.8453 12.0319C24.976 12.0133 27.0107 11.5093 27.0107 11.5093V7.4586C27.0107 7.30927 27.104 7.21593 27.272 7.21593H31.304C31.472 7.21593 31.5653 7.30927 31.5653 7.4586V11.3973H34.5333C34.6827 11.3973 34.832 11.5466 34.832 11.7146V14.8879C34.832 15.0933 34.7013 15.2426 34.5333 15.2426H31.5653V21.0871C31.5653 21.9645 32.0693 22.6365 33.5253 22.6365C33.9864 22.6365 34.4232 22.545 34.5968 22.5431ZM22.848 11.3786C23.016 11.3786 23.1653 11.5279 23.1653 11.6959V25.4533C23.1653 25.7893 23.072 25.9573 22.6987 25.9573H19.1147C18.7973 25.9573 18.5547 25.8266 18.5547 25.4533V11.7519C18.5547 11.5466 18.704 11.3786 18.872 11.3786H22.848ZM78.8293 18.4346C78.8293 15.0559 77.4667 14.6079 76.0293 14.7573C74.9093 14.8319 74.0133 15.3919 74.0133 15.3919V21.9626C74.0133 21.9626 74.928 22.5973 76.2907 22.6346C78.2133 22.6906 78.8293 21.9999 78.8293 18.4346ZM20.888 5.06927C22.288 5.06927 23.4267 6.20794 23.4267 7.64527C23.4267 9.0826 22.288 10.2213 20.888 10.2213C19.4507 10.2213 18.312 9.0826 18.312 7.64527C18.312 6.20794 19.4507 5.06927 20.888 5.06927ZM34.5893 22.5226V22.5245L34.608 22.5431H34.6061L34.5968 22.5413V22.5431C34.58 22.5413 34.5688 22.5226 34.552 22.5226H34.5893Z" fill="black"/>
</g>
<defs>
<clipPath id="clip0_4_383">
<rect width="84" height="30" fill="white"/>
</clipPath>
</defs>
</svg>
