<svg width="24" height="24" viewBox="0 0 24 24" fill="none" xmlns="http://www.w3.org/2000/svg">
<path d="M8.72001 18.7799C8.57956 18.6393 8.50067 18.4487 8.50067 18.2499C8.50067 18.0512 8.57956 17.8606 8.72001 17.7199L14.44 11.9999L8.72001 6.27994C8.5876 6.13768 8.5155 5.94963 8.51886 5.75531C8.52221 5.561 8.60077 5.37555 8.73801 5.23794C8.87561 5.1007 9.06106 5.02215 9.25538 5.01879C9.4497 5.01543 9.63775 5.08754 9.78001 5.21994L16.03 11.4699C16.1705 11.6106 16.2494 11.8012 16.2494 11.9999C16.2494 12.1987 16.1705 12.3893 16.03 12.5299L9.78001 18.7799C9.63939 18.9204 9.44876 18.9993 9.25001 18.9993C9.05126 18.9993 8.86064 18.9204 8.72001 18.7799Z" fill="black"/>
</svg>
