<svg width="24" height="24" viewBox="0 0 24 24" fill="none" xmlns="http://www.w3.org/2000/svg">
<path d="M6 9V7.25C6 3.845 8.503 1 12 1C15.497 1 18 3.845 18 7.25V9H18.5C19.163 9 19.7989 9.26339 20.2678 9.73223C20.7366 10.2011 21 10.837 21 11.5V19.5C21 20.163 20.7366 20.7989 20.2678 21.2678C19.7989 21.7366 19.163 22 18.5 22H5.5C4.83696 22 4.20107 21.7366 3.73223 21.2678C3.26339 20.7989 3 20.163 3 19.5V11.5C3 10.837 3.26339 10.2011 3.73223 9.73223C4.20107 9.26339 4.83696 9 5.5 9H6ZM4.5 11.5V19.5C4.5 19.7652 4.60536 20.0196 4.79289 20.2071C4.98043 20.3946 5.23478 20.5 5.5 20.5H18.5C18.7652 20.5 19.0196 20.3946 19.2071 20.2071C19.3946 20.0196 19.5 19.7652 19.5 19.5V11.5C19.5 11.2348 19.3946 10.9804 19.2071 10.7929C19.0196 10.6054 18.7652 10.5 18.5 10.5H5.5C5.23478 10.5 4.98043 10.6054 4.79289 10.7929C4.60536 10.9804 4.5 11.2348 4.5 11.5ZM7.5 7.25V9H16.5V7.25C16.5 4.58 14.578 2.5 12 2.5C9.422 2.5 7.5 4.58 7.5 7.25Z" fill="black"/>
</svg>
