<svg width="89" height="44" viewBox="0 0 89 44" fill="none" xmlns="http://www.w3.org/2000/svg">
<g clip-path="url(#clip0_4_54)">
<mask id="mask0_4_54" style="mask-type:luminance" maskUnits="userSpaceOnUse" x="0" y="0" width="89" height="44">
<path d="M0 0H89V44H0V0Z" fill="white"/>
</mask>
<g mask="url(#mask0_4_54)">
<path fill-rule="evenodd" clip-rule="evenodd" d="M48.1821 3.66663V8.63554L41.9769 9.95734V4.96393L48.1821 3.66663ZM61.0878 11.401C58.6649 11.401 57.1074 12.5269 56.2421 13.3102L55.9208 11.7926H50.4819V40.3333L56.6624 39.0359L56.6871 32.1089C57.5771 32.7453 58.8875 33.651 61.063 33.651C65.4883 33.651 69.518 30.1262 69.518 22.3669C69.4933 15.2684 65.4141 11.401 61.0878 11.401ZM59.6044 28.2659C58.1458 28.2659 57.2805 27.7519 56.6871 27.1155L56.6624 18.0344C57.3053 17.3245 58.1953 16.835 59.6044 16.835C61.8541 16.835 63.4116 19.3316 63.4116 22.5382C63.4116 25.8182 61.8789 28.2659 59.6044 28.2659ZM89.0003 22.6117C89.0003 16.3454 85.9346 11.401 80.0755 11.401C74.1916 11.401 70.6316 16.3454 70.6316 22.5627C70.6316 29.9304 74.8344 33.6509 80.8666 33.6509C83.8085 33.6509 86.0335 32.9901 87.7147 32.0599V27.1645C86.0335 27.9967 84.1053 28.5107 81.6578 28.5107C79.2596 28.5107 77.1335 27.6784 76.8616 24.7901H88.9508C88.9508 24.656 88.9596 24.3523 88.9697 24.0018L88.9699 23.9963V23.995L88.97 23.9941C88.9839 23.5147 89.0003 22.9497 89.0003 22.6117ZM76.7875 20.2863C76.7875 17.5203 78.4933 16.3699 80.0508 16.3699C81.5589 16.3699 83.1658 17.5203 83.1658 20.2863H76.7875ZM48.1821 11.8163H41.9769V33.2341H48.1821V11.8163ZM34.9339 11.8187L35.3294 13.6301C36.788 10.9865 39.6805 11.525 40.4717 11.8187V17.4485C39.7053 17.1793 37.233 16.8366 35.7744 18.7213V33.2365H29.5939V11.8187H34.9339ZM22.9667 6.50615L16.9345 7.77897L16.9097 27.3854C16.9097 31.008 19.654 33.676 23.3129 33.676C25.34 33.676 26.8234 33.3089 27.6393 32.8682V27.8994C26.8481 28.2176 22.942 29.3436 22.942 25.7209V17.0314H27.6393V11.8177H22.942L22.9667 6.50615ZM8.35619 16.7126C7.0459 16.7126 6.25479 17.0798 6.25479 18.0344C6.25479 19.0766 7.6163 19.5351 9.30546 20.1039C12.059 21.0312 15.6834 22.2518 15.6987 26.7728C15.6987 31.1543 12.1634 33.6755 7.02118 33.6755C4.89507 33.6755 2.57118 33.2593 0.272006 32.2802V26.4546C2.34868 27.5805 4.96923 28.4128 7.02118 28.4128C8.40562 28.4128 9.39455 28.0457 9.39455 26.9196C9.39455 25.7652 7.91861 25.2374 6.13678 24.6004C3.42318 23.6301 6.10352e-05 22.4061 6.10352e-05 18.3281C6.10352e-05 13.9956 3.33757 11.401 8.35619 11.401C10.4081 11.401 12.4353 11.7192 14.4873 12.5269V18.2791C12.6084 17.2756 10.2351 16.7126 8.35619 16.7126Z" fill="#B7BFC7"/>
</g>
</g>
<defs>
<clipPath id="clip0_4_54">
<rect width="89" height="44" fill="white"/>
</clipPath>
</defs>
</svg>
