<svg width="73" height="32" viewBox="0 0 73 32" fill="none" xmlns="http://www.w3.org/2000/svg">
<g clip-path="url(#clip0_4_80)">
<path d="M30.8879 11.1672C34.3335 2.7589 27.887 0.473267 23.7003 0.473267H9.80676C10.2111 0.726023 10.5086 1.1163 10.6433 1.57091C10.778 2.02551 10.7407 2.5132 10.5385 2.9425L2.44316 28.5711C2.24947 29.0696 1.95712 29.5245 1.5833 29.9092C1.20948 30.2938 0.761731 30.6004 0.266479 30.8109H11.5018C11.0563 30.677 10.6821 30.3745 10.4601 29.9689C10.2382 29.5636 10.1864 29.0877 10.3162 28.6446L13.2524 19.3734C13.2524 19.3734 26.7847 21.2093 30.8509 11.1672H30.8879ZM19.9676 2.83233C21.4404 2.83233 25.5251 3.03429 22.8759 10.6715C20.0973 18.6943 14.0118 17.0419 14.0118 17.0419L18.5042 2.83233H19.9583H19.9676Z" fill="#B7BFC7"/>
<path d="M39.8818 30.8293H47.4492C44.6731 29.8185 42.1468 28.2317 40.0391 26.1754C41.71 24.601 42.7218 22.4613 42.8735 20.1812H38.9554C39.1828 20.3256 39.3702 20.5237 39.5011 20.7576C39.6322 20.9915 39.7025 21.254 39.7058 21.5215C39.6774 22.5457 39.3242 23.5349 38.6961 24.3488C37.2691 22.4554 36.3167 20.2531 35.9174 17.9231C37.8529 17.1441 39.6752 16.1131 41.336 14.8573C41.9176 14.4229 42.3994 13.8709 42.7491 13.2378C43.0988 12.6048 43.3087 11.9052 43.3644 11.1856V11.0754C43.3667 10.6258 43.2777 10.1804 43.1025 9.76573C42.9276 9.35094 42.6701 8.97533 42.3455 8.66129C41.7009 8.08868 40.9269 7.67806 40.0888 7.46398C39.2505 7.24992 38.3726 7.23867 37.5291 7.43123C36.2541 7.68362 35.0671 8.25922 34.0836 9.10186C31.8049 11.2315 31.5178 14.7288 31.5178 16.3168V17.1613L31.1565 17.3081C29.4893 17.9231 25.0341 19.0889 23.4502 22.7239C23.1211 23.5575 22.9545 24.4451 22.9594 25.34C22.9398 26.4434 23.2387 27.5295 23.8208 28.4702C24.9414 30.2142 26.8495 31.3158 29.8969 31.2241C33.2129 31.169 36.4825 28.9291 37.0567 28.4702C37.899 29.3271 38.8305 30.0933 39.8354 30.7559L39.8818 30.8293ZM39.8818 10.5522C39.4928 12.9939 36.2973 15.4631 35.5191 15.7937C35.2811 13.9521 35.6618 12.0842 36.6028 10.4788C37.3623 9.3038 38.3906 8.78981 39.2148 9.08352C39.8818 9.31297 39.9466 9.90964 39.8911 10.5522H39.8818ZM35.4729 26.8913C34.2878 27.5678 32.9831 28.0133 31.629 28.204C30.1006 28.3508 27.5628 27.7634 27.5813 24.7342C27.5813 22.1457 30.4156 20.2548 31.9625 19.5938C32.6636 22.2236 33.8575 24.6991 35.4822 26.8913H35.4729Z" fill="#B7BFC7"/>
<path d="M62.8618 2.86C67.354 1.78602 71.0589 5.27417 71.3925 5.51284L72.6706 1.47394C70.9015 0.94154 57.9989 -3.38192 48.8847 6.92646C43.281 13.2693 41.9103 26.2581 49.0145 29.7463C56.6189 33.4731 65.0198 29.1772 65.6867 28.8742L69.1138 17.905C69.2915 17.253 69.6353 16.6573 70.112 16.1751C70.589 15.6929 71.183 15.3403 71.837 15.1511H59.7959C60.3398 15.2995 60.8026 15.6545 61.0837 16.1393C61.3646 16.6241 61.4411 17.1993 61.2965 17.7397L57.823 28.7089C57.3599 28.7916 47.6344 31.1966 53.0807 14.3618C54.2754 10.7451 57.5451 4.12676 62.8894 2.85084L62.8618 2.86Z" fill="#B7BFC7"/>
</g>
<defs>
<clipPath id="clip0_4_80">
<rect width="73" height="32" fill="white"/>
</clipPath>
</defs>
</svg>
