<svg width="131" height="44" viewBox="0 0 131 44" fill="none" xmlns="http://www.w3.org/2000/svg">
<g clip-path="url(#clip0_4_60)">
<mask id="mask0_4_60" style="mask-type:luminance" maskUnits="userSpaceOnUse" x="0" y="0" width="131" height="44">
<path d="M0 0H131V44H0V0Z" fill="white"/>
</mask>
<g mask="url(#mask0_4_60)">
<path fill-rule="evenodd" clip-rule="evenodd" d="M6.10352e-05 17.6007C6.10352e-05 11.3005 4.58588 5.5 13.2771 5.5C20.2432 5.5 25.6588 10.4533 25.6807 17.0793C25.6807 23.9878 21.3132 29.5277 15.2425 29.5277C13.2116 29.5277 11.2899 28.4631 10.6348 27.2248C10.6348 27.2248 9.63025 31.0484 9.39005 31.9826C8.71312 34.5678 6.31102 38.1524 6.11448 38.4131C6.09264 38.4566 6.02713 38.5 5.96162 38.5C5.85243 38.5 5.74325 38.4131 5.74325 38.3045C5.67774 37.9352 4.97895 33.6336 5.59039 30.9832C5.96162 29.419 7.94881 21.0333 7.94881 21.0333C7.53391 20.0991 7.31553 19.078 7.33737 18.057C7.33737 15.2762 8.95332 13.1906 10.9842 13.1906C12.6875 13.1906 13.5173 14.4723 13.5173 16.0148C13.5173 17.0768 13.0993 18.463 12.6564 19.9318C12.3835 20.8368 12.1012 21.7732 11.9013 22.6843C11.4209 24.6613 12.9059 26.2906 14.8713 26.2906C18.4307 26.2906 21.1822 22.5539 21.1822 17.1445C21.1822 12.365 17.7319 9.01941 12.7967 9.01941C7.07532 9.01941 3.71239 13.2775 3.71239 17.6876C3.71239 19.4039 4.36751 21.2505 5.19732 22.2499C5.32834 22.4236 5.39385 22.6408 5.32834 22.8364C5.24896 23.1636 5.11657 23.6841 4.99847 24.1485C4.88915 24.5783 4.79207 24.96 4.76057 25.0958C4.67322 25.4651 4.47669 25.5303 4.08362 25.3565C1.57234 24.1833 6.10352e-05 20.5336 6.10352e-05 17.6007ZM68.4836 21.2063C69.8812 21.2063 70.3617 22.0536 70.3617 23.053C70.3617 24.7474 69.0514 25.7685 66.9768 25.7685C66.1689 25.7468 65.3609 25.6164 64.5966 25.3992C64.8587 23.8351 65.8631 21.2063 68.4836 21.2063ZM98.2912 21.2063C99.5582 21.2063 100.169 22.0536 100.169 23.053C100.169 24.7474 98.8592 25.7685 96.7843 25.7685C95.9763 25.7468 95.1683 25.6164 94.4043 25.3992C94.6663 23.8351 95.8022 21.2063 98.2912 21.2063ZM126.549 21.3367H129.716C130.152 21.3367 130.414 21.1629 130.502 20.7501C130.557 20.5367 130.624 20.2658 130.691 19.9951C130.809 19.5213 130.926 19.0476 130.982 18.8818C131.069 18.5125 130.873 18.2517 130.458 18.2517H127.313C127.351 18.0969 127.41 17.881 127.48 17.62C127.816 16.3796 128.427 14.1213 128.427 12.5599C128.427 8.77973 125.195 5.56445 120.609 5.56445C115.434 5.56445 112.071 9.0187 112.071 13.8633C112.093 15.3189 112.507 16.731 113.272 17.9693C112.988 17.9476 112.704 17.9476 112.42 17.9476C108.489 17.9476 106.022 20.0767 106.022 23.1616C106.022 26.0509 108.315 27.1806 110.477 27.941C110.771 28.044 111.061 28.1385 111.342 28.2298C112.898 28.7355 114.167 29.148 114.167 30.4177C114.167 31.417 113.206 32.0036 111.285 32.0036C109.035 32.0036 107.791 30.9391 107.463 30.548C107.812 30.2439 108.009 29.7876 107.987 29.3097C107.987 28.3755 107.332 27.6369 106.109 27.6369C105.083 27.6369 104.209 28.4624 103.991 29.5704C102.331 30.9173 100.541 31.7863 97.9862 31.7863C95.4523 31.7863 94.1643 30.4828 94.1643 27.702C94.7542 27.8758 96.3042 28.0931 97.3092 28.0931C101.567 28.0931 104.471 26.1596 104.471 22.2926C104.471 20.207 102.637 18.0345 99.0122 18.0345H98.9902C94.2293 18.0345 91.5437 21.0326 90.3863 24.3564C90.2226 24.3129 90.0588 24.275 89.895 24.2369C89.7312 24.1989 89.5674 24.1609 89.4037 24.1174C89.7094 23.3136 89.8622 22.4447 89.8622 21.5974C89.8622 19.968 88.836 18.0345 86.1281 18.0345C84.2282 18.0345 82.4376 19.2728 81.1929 21.1195C81.332 20.5657 81.4531 20.1019 81.5437 19.7548C81.6522 19.3394 81.717 19.0911 81.717 19.0556C81.8044 18.7297 81.6733 18.3821 81.1711 18.3821H78.3759C77.9828 18.3821 77.6989 18.5125 77.5897 18.9687C77.5242 19.2728 76.5634 23.0313 75.6244 26.6592C75.0348 28.9404 71.9994 31.7646 68.1779 31.7646C65.6666 31.7646 64.3564 30.3742 64.3564 27.5934C65.0115 27.8541 66.4746 28.0714 67.5009 28.0714C71.9339 28.0714 74.6854 26.1378 74.6854 22.2709C74.6854 20.1853 72.8511 18.0128 69.2261 18.0128H69.2043C63.8323 18.0128 60.5567 22.1622 59.9889 26.8765C59.7487 28.8317 58.0892 31.5256 56.2985 31.5256C55.425 31.5256 54.9227 30.9825 54.9227 30.0483C54.9227 29.4135 55.2768 28.0608 55.7376 26.3004C55.8603 25.8315 55.9906 25.3335 56.1238 24.8126C56.2648 24.2797 56.4421 23.5655 56.6442 22.7521C56.7552 22.3059 56.8735 21.8291 56.9973 21.3367H59.9234C60.3602 21.3367 60.6004 21.1629 60.7096 20.7501C60.8406 20.1635 61.1026 19.1425 61.19 18.8818C61.2773 18.5125 61.0808 18.2517 60.6659 18.2517H57.7834C57.7834 18.2517 59.0936 13.016 59.1373 12.8639C59.2683 12.3209 58.8098 12.0168 58.3512 12.1254C58.3512 12.1254 56.1238 12.5598 55.7089 12.6467C55.2939 12.7336 54.9664 12.9726 54.8135 13.5591L53.6343 18.2735H51.3414C50.9047 18.2735 50.6426 18.4473 50.5553 18.8601C50.4998 19.0731 50.4327 19.3435 50.3657 19.6139L50.3654 19.6148C50.2479 20.0887 50.1304 20.5625 50.0749 20.7284C49.9875 21.0977 50.1841 21.3584 50.599 21.3584H52.8482C52.8263 21.4236 52.0402 24.4433 51.3851 27.1589C51.0794 28.4624 50.053 31.5256 48.3934 31.5256C47.3888 31.5256 46.9739 31.026 46.9739 29.9397C46.9739 29.118 47.3693 27.6986 47.7767 26.2363C48.2094 24.6832 48.6554 23.0818 48.6554 22.0971C48.6554 19.5335 47.2797 18.0345 44.4409 18.0345C42.6502 18.0345 40.794 19.1859 40.0079 20.1853C40.0079 20.1853 40.2482 19.3597 40.3355 19.0339C40.4228 18.7732 40.27 18.4907 40.0079 18.4038C39.9424 18.3821 39.8551 18.3821 39.7896 18.3821H37.038C36.4484 18.3821 36.2955 18.708 36.2082 19.0339C36.1846 19.1043 35.887 20.2777 35.4669 21.9344C35.1093 23.3446 34.6629 25.1048 34.2211 26.833C33.566 29.4183 31.9718 31.5691 30.2685 31.5691C29.395 31.5691 29.0019 31.026 29.0019 30.0918C29.0019 29.3874 29.4044 27.7824 29.9153 25.7444L29.9156 25.7428C29.9877 25.4555 30.0619 25.1594 30.1375 24.8561C30.54 23.2771 30.9122 21.8488 31.184 20.8059C31.4282 19.8691 31.5914 19.2429 31.6224 19.099C31.7098 18.7297 31.5569 18.4255 31.0765 18.4255H28.2813C27.7791 18.4255 27.5826 18.6863 27.4952 19.0556C27.4952 19.0556 26.7091 22.0102 25.8792 25.3123C25.824 25.528 25.7685 25.744 25.7131 25.9595L25.7122 25.9631C25.1542 28.1332 24.6126 30.2397 24.6126 31.2867C24.6126 33.3288 25.5298 34.8712 28.063 34.8712C30.0064 34.8712 31.5569 33.8937 32.7361 32.6336C32.6978 32.7812 32.6626 32.9174 32.6309 33.0405C32.5179 33.4785 32.4474 33.7511 32.4304 33.785C32.3212 34.176 32.4522 34.5237 32.9108 34.5237H35.7714C36.2737 34.5237 36.4484 34.3281 36.5576 33.8937C36.6668 33.4592 38.785 25.1385 38.785 25.1385C39.3528 22.9009 40.7503 21.4019 42.7157 21.4019C43.6547 21.4019 44.4409 22.0102 44.3535 23.2051C44.3103 23.7203 44.0384 24.7688 43.7255 25.9759C43.2469 27.8218 42.672 30.0388 42.672 31.2867C42.672 32.8509 43.2616 34.8712 46.2097 34.8712C48.2187 34.8712 49.7255 33.9154 50.7955 32.6553C51.1886 33.9806 52.2368 34.8712 54.1584 34.8712C57.3467 34.8712 59.2683 32.9812 60.4038 31.0911C61.3429 33.2854 63.5484 34.8712 66.7585 34.8712C69.641 34.8929 72.4143 33.7199 74.3797 31.6125C74.224 32.2116 74.093 32.7222 73.9959 33.1001C73.8889 33.5171 73.8234 33.7726 73.8119 33.8068C73.7027 34.1978 73.8774 34.5237 74.3579 34.5237H77.1749C77.546 34.5454 77.8736 34.2846 77.9391 33.9154C77.9579 33.8314 78.045 33.4952 78.1834 32.9618C78.3672 32.2526 78.6415 31.195 78.9655 29.918C80.0792 25.6599 81.848 21.2281 84.5121 21.2281C85.4511 21.2281 85.8442 21.7495 85.8442 22.575C85.8442 22.8792 85.7787 23.2051 85.6258 23.4874C84.3374 23.2268 83.2893 23.8567 83.2893 25.2254C83.2893 26.1161 84.2501 26.9417 85.5167 26.9417C86.4994 26.9417 87.3073 26.7027 87.9406 26.2682C88.1703 26.319 88.41 26.3697 88.6557 26.4218C89.0404 26.5034 89.4408 26.5882 89.8404 26.681C89.753 27.2893 89.6875 27.9193 89.6875 28.5493C89.6875 31.9819 92.2643 34.8929 96.6753 34.8929C100.126 34.8929 102.353 33.7416 104.428 32.0253C105.41 33.633 107.9 34.9146 111.154 34.9146C115.608 34.9146 118.163 32.6119 118.163 29.5487C118.163 26.7896 115.87 25.7685 113.534 24.9212C113.3 24.8369 113.072 24.7573 112.851 24.6802C111.248 24.122 110.018 23.6933 110.018 22.5099C110.018 21.4019 110.892 20.9022 112.376 20.9022C113.075 20.9022 113.796 21.0108 114.473 21.2281C114.866 22.184 115.652 23.2484 117.006 23.2484C118.163 23.2484 118.666 22.3361 118.666 21.5105C118.666 20.5511 118.014 19.9376 117.237 19.2077C116.097 18.1361 114.691 16.8134 114.691 13.7764C114.691 10.6046 116.504 7.99763 120.238 7.99763C122.837 7.99763 124.54 9.62702 124.54 12.2774C124.54 14.4499 123.208 18.3387 123.208 18.3387H120.959C120.522 18.3387 120.26 18.5125 120.172 18.9252C120.117 19.1383 120.05 19.4087 119.983 19.6791L119.982 19.6802C119.865 20.1538 119.748 20.6278 119.692 20.7936C119.605 21.1629 119.801 21.4236 120.216 21.4236H122.422C122.422 21.4236 120.151 29.7876 120.151 31.3084C120.151 33.3505 121.308 34.8929 123.841 34.8929C127.423 34.8929 129.672 32.5902 130.633 29.2228C130.698 29.049 130.633 28.8535 130.458 28.7666C130.414 28.7448 130.349 28.7448 130.305 28.7448H128.929C128.689 28.7448 128.471 28.9186 128.427 29.1576C128.121 30.3525 127.357 31.6125 125.85 31.6125C124.977 31.6125 124.474 31.0694 124.474 30.1352C124.474 29.4248 124.883 27.8828 125.446 25.7642C125.52 25.4857 125.597 25.1973 125.676 24.8995C126.003 23.596 126.549 21.3367 126.549 21.3367ZM33.1708 13.9942C33.0616 15.4715 31.8387 16.6447 30.4193 16.6447C28.9998 16.6447 27.9298 15.4498 28.0171 13.9942C28.1263 12.5169 29.3492 11.3438 30.7687 11.3438C32.1881 11.3438 33.2582 12.5386 33.1708 13.9942Z" fill="#B7BFC7"/>
</g>
</g>
<defs>
<clipPath id="clip0_4_60">
<rect width="131" height="44" fill="white"/>
</clipPath>
</defs>
</svg>
