<svg width="107" height="44" viewBox="0 0 107 44" fill="none" xmlns="http://www.w3.org/2000/svg">
<g clip-path="url(#clip0_4_66)">
<mask id="mask0_4_66" style="mask-type:luminance" maskUnits="userSpaceOnUse" x="0" y="0" width="107" height="44">
<path d="M107 0.15332H0V43.0802H107V0.15332Z" fill="white"/>
</mask>
<g mask="url(#mask0_4_66)">
<mask id="mask1_4_66" style="mask-type:alpha" maskUnits="userSpaceOnUse" x="0" y="0" width="107" height="44">
<path d="M0 0.15332H106.566V43.0801H0V0.15332Z" fill="white"/>
</mask>
<g mask="url(#mask1_4_66)">
<path d="M106.147 32.832H100.595L101.513 29.1596H90.3675L89.4541 32.832H84.0721V32.0779C84.1552 31.6632 84.227 31.2295 84.3288 30.7657C85.3101 26.8068 87.9105 22.8931 92.413 22.8931C94.1944 22.8931 95.9645 23.5718 95.723 26.0339H102.346C102.607 24.8839 103.045 22.9271 101.796 21.1323C100.384 19.1791 97.5383 18.3949 93.851 18.3949C91.209 18.3949 87.3859 18.8134 84.0721 20.9777V0.994136H106.147V32.832ZM93.1188 38.2125C91.8956 38.4466 90.6542 38.5728 89.4088 38.5895C86.2273 38.5895 84.0118 37.1115 83.9667 33.6653H94.2473L93.1188 38.2125ZM80.3999 20.0313V24.5936C79.026 26.4895 78.0282 28.6307 77.46 30.9016C77.2934 31.535 77.176 32.1805 77.109 32.832H73.8669L76.6373 19.6882H67.3076L58.9442 32.832H58.3253V1.00168H80.3887L80.3999 20.0313ZM68.0776 32.832H64.7601L69.7834 24.9367L68.0776 32.832ZM54.6831 19.658H49.1617L45.3876 32.832H39.515C42.5004 31.731 44.3157 29.6233 44.878 26.5014C45.3385 24.0732 45.1197 22.4746 44.1233 21.2793C42.6362 19.4996 39.6546 19.6504 37.0052 19.6504H32.6273V1.00168H54.6756L54.6831 19.658ZM51.1545 32.832L53.4791 24.5936L53.5585 32.832H51.1545ZM35.0956 29.6988C34.8804 29.6988 34.6653 29.7289 34.4199 29.7289C34.0953 29.7289 33.8462 29.7289 33.6086 29.7289H32.1971L32.8499 27.3159L33.1556 26.1206L33.9104 23.3153H34.8653H35.9598C37.8242 23.3153 39.0055 23.4209 39.4358 24.0204C39.7641 24.4691 39.7226 25.2496 39.334 26.4297C38.6697 28.4695 37.8242 29.5027 35.1106 29.71M28.9588 20.8269L28.6153 21.958L25.4565 32.4625L25.3319 32.8395H14.9454L14.1341 31.1089L25.3319 19.6882H18.1383L9.38246 29.1143L12.2168 19.6882H6.9104V1.00168H28.9588V20.8269ZM83.2344 0.15332V21.5734C82.5146 22.1449 81.8512 22.7837 81.2529 23.4812V0.15332H57.5026V19.658H55.5361V0.15332H31.7819V19.6882H29.8154V0.15332H6.06124V22.4368L0 42.6088H5.33283L8.00868 33.6691H8.7635L13.1981 42.6088H19.6405L15.3494 33.6691H25.0828L22.3843 42.6088H28.2078L30.8722 33.6916H32.1517V33.6691H45.1158L42.5457 42.5825H48.4183L50.909 33.6691H53.5509L53.6227 42.5825H58.5517L64.2128 33.6691H67.9151L66.0056 42.5825H71.7875L73.6745 33.6691H77.0185C76.8863 36.4328 77.5921 38.9478 79.4262 40.6293C81.6681 42.6881 85.1101 43.0801 87.6577 43.0801C91.2743 43.0367 94.8751 42.5954 98.3951 41.7643L100.399 33.6691H107V0.15332H83.2344Z" fill="#B7BFC7"/>
</g>
</g>
</g>
<defs>
<clipPath id="clip0_4_66">
<rect width="107" height="44" fill="white"/>
</clipPath>
</defs>
</svg>
