<svg width="169" height="44" viewBox="0 0 169 44" fill="none" xmlns="http://www.w3.org/2000/svg">
<path d="M107.635 15.5023C106.67 15.7588 105.801 15.9137 104.722 16.0291V16.3577C105.937 16.3577 106.091 16.4937 106.091 17.4988V20.8777C105.377 19.7188 104.817 19.372 103.776 19.372C101.712 19.372 100.267 21.3217 100.267 24.1034C100.267 26.8851 101.732 28.8365 103.835 28.8365C104.934 28.8365 105.686 28.3354 106.226 27.2537C106.303 27.9868 106.304 28.064 106.497 28.7983C107.288 28.5468 107.615 28.4691 108.754 28.3343L109.042 28.2948V27.9668C107.75 27.9285 107.635 27.8314 107.635 26.6537V15.5023ZM55.5873 15.6428C54.979 15.7136 54.3669 15.7462 53.7546 15.7405C53.2139 15.7405 52.925 15.7217 52.1736 15.6634V16.1445C53.5039 16.2223 53.7734 16.4154 53.7734 17.3045V17.4211L53.368 26.9045C53.3298 27.948 53.138 28.1017 51.7877 28.1988V28.6628C52.7914 28.5851 53.1751 28.5663 53.7152 28.5663C54.2559 28.5663 54.6407 28.5851 55.6256 28.6628V28.1988C54.2747 28.1017 54.0241 27.928 54.0241 27.0783V26.9045L54.41 16.88L57.5731 25.4371L57.8049 26.1125L58.0761 26.8651L58.3456 27.6194L58.5585 28.2383H58.8486L59.0592 27.6005L59.3099 26.8651L59.5794 26.152L59.8112 25.5125L62.9948 16.8988L63.1683 26.9045V27.0011C63.1683 27.9091 62.8794 28.1211 61.5668 28.1988V28.6628C62.7824 28.5468 63.2448 28.5085 63.9785 28.5085C64.7105 28.5085 65.1741 28.5468 66.3896 28.6628V28.1988C65.0005 28.1017 64.8264 27.948 64.8075 26.9045L64.5963 17.4211V17.2857C64.5963 16.416 64.8852 16.2228 66.1972 16.1445V15.6634C65.4641 15.7217 65.1552 15.7405 64.6733 15.7405C64.0944 15.7405 63.6902 15.7205 62.8218 15.6428L59.1763 25.4177L55.5873 15.6428ZM130.624 15.72V16.2045C132.013 16.2811 132.207 16.4348 132.207 17.4783V26.8457C132.207 27.8891 132.052 28.0234 130.624 28.14V28.604H135.505C136.932 28.604 137.704 28.4303 138.514 27.9285C139.479 27.3103 140.115 26.1308 140.115 24.9137C140.115 23.8714 139.672 22.9257 138.919 22.3463C138.513 22.0377 138.089 21.8628 137.395 21.7274C138.784 21.2063 139.518 20.2211 139.518 18.8697C139.518 17.864 139.093 16.9748 138.36 16.4154C137.704 15.9325 136.951 15.7194 135.697 15.7194L130.624 15.72ZM133.827 16.32H135.466C137.087 16.32 137.8 17.1108 137.8 18.908C137.8 19.796 137.589 20.4337 137.165 20.936C136.74 21.4188 136.219 21.5737 135.138 21.5737H133.827V16.32ZM89.4615 19.0817L88.9397 20.0663C88.3225 19.4674 87.8018 19.2548 86.9728 19.2548C84.6964 19.2548 83.1526 21.2263 83.1526 24.1034C83.1526 26.9234 84.677 28.8177 86.9145 28.8177C88.6514 28.8177 89.7499 27.696 90.0005 25.6291H89.2092C88.9779 27.3291 88.2637 28.18 87.067 28.18C85.5825 28.18 84.8306 26.8085 84.8306 24.1034C84.8306 21.3411 85.6807 19.7777 87.1269 19.7777C88.3042 19.7777 89.0168 20.588 89.3633 22.268H89.7893V19.0817H89.4615ZM124.025 19.14L123.698 19.9308C123.042 19.4874 122.483 19.3137 121.731 19.3137C120.033 19.3137 118.837 20.3565 118.837 21.8828C118.837 23.0028 119.282 23.5434 120.689 24.2011L121.576 24.6051L122.309 24.9337C123.254 25.3588 123.622 25.8028 123.622 26.4594C123.622 27.4451 122.772 28.1988 121.634 28.1988C120.284 28.1988 119.473 27.3491 119.126 25.5914L118.703 25.6103V28.8365H119.05L119.512 27.9668C120.245 28.5463 120.939 28.7783 121.827 28.7783C123.641 28.7783 124.933 27.6205 124.933 25.9971C124.933 24.8577 124.411 24.2388 122.946 23.6017L122.136 23.2543C120.379 22.4817 120.092 22.2314 120.092 21.4583C120.092 20.5503 120.882 19.8548 121.904 19.8548C123.119 19.8548 123.756 20.5891 123.929 22.1337H124.374V19.1394L124.025 19.14ZM152.541 19.14C151.771 19.4108 151.113 19.5645 149.994 19.7194V20.0474C150.091 20.0474 150.188 20.0663 150.246 20.0663C151.211 20.0663 151.325 20.1834 151.345 20.9748V27.2331C151.345 28.0634 151.153 28.2183 149.977 28.276V28.6628C150.98 28.5657 151.383 28.5474 152.058 28.5474C152.753 28.5474 153.14 28.5657 154.143 28.6628V28.276C153.14 28.2377 152.889 28.044 152.889 27.2725V22.596C152.889 21.0125 153.583 20.1834 154.895 20.1834C156.129 20.1834 156.63 20.8588 156.63 22.5394V27.2725C156.63 28.044 156.38 28.2377 155.338 28.276V28.6628C156.34 28.5657 156.726 28.5474 157.441 28.5474C158.134 28.5474 158.522 28.5657 159.545 28.6628V28.276C158.367 28.2188 158.173 28.0634 158.173 27.2331V22.596C158.173 21.8628 158.077 21.3217 157.883 20.8588C157.498 19.912 156.495 19.3137 155.338 19.3137C154.221 19.3137 153.428 19.7771 152.733 20.8205C152.694 20.0863 152.637 19.5845 152.541 19.14ZM78.3013 19.1777C77.5094 19.4091 76.8539 19.5263 75.7543 19.6228V19.9703H76.0049C77.0075 19.9891 77.1051 20.0868 77.124 20.9171V27.2331C77.124 28.0634 76.9127 28.2183 75.7354 28.276V28.6628C76.7968 28.5657 77.2016 28.5457 77.8965 28.5457C78.5713 28.5457 78.9767 28.5657 80.0364 28.6628V28.276C78.8602 28.2188 78.6672 28.0634 78.6672 27.2331V23.196C78.6672 21.2828 79.3033 20.068 80.3058 20.068C80.653 20.068 80.8859 20.2594 80.8859 20.5308V20.704L80.8465 20.8983C80.8277 20.976 80.8088 21.0525 80.8088 21.0903C80.8088 21.4777 81.156 21.7474 81.6002 21.7474C82.0821 21.7474 82.4103 21.3794 82.4103 20.8194C82.4103 19.8931 81.6961 19.2554 80.7318 19.2554C79.7292 19.2554 78.8985 19.8931 78.4748 20.9943V20.7811C78.4354 20.2017 78.3972 19.8931 78.3013 19.1777ZM71.0754 19.2554C68.7602 19.2554 67.3145 21.1285 67.3145 24.1034C67.3145 27.0777 68.7602 28.8177 71.2484 28.8177C73.1388 28.8177 74.3731 27.6383 74.6244 25.6485H73.8536C73.6218 27.2908 72.7728 28.18 71.4031 28.18C69.648 28.18 68.8766 26.8285 68.8578 23.8143H74.6055C74.5673 20.84 73.3517 19.2554 71.0754 19.2554ZM95.1367 19.2554C92.8215 19.2554 91.3748 21.1285 91.3748 24.1034C91.3748 27.0777 92.8215 28.8177 95.3097 28.8177C97.2001 28.8177 98.4357 27.6383 98.6857 25.6485H97.9138C97.6826 27.2908 96.8341 28.18 95.4645 28.18C93.7094 28.18 92.9369 26.8285 92.9175 23.8143H98.6669C98.6275 20.84 97.4131 19.2554 95.1367 19.2554ZM113.535 19.2554C111.22 19.2554 109.774 21.1285 109.774 24.1034C109.774 27.0777 111.22 28.8177 113.708 28.8177C115.599 28.8177 116.833 27.6383 117.084 25.6485H116.312C116.08 27.2908 115.233 28.18 113.863 28.18C112.108 28.18 111.336 26.8285 111.316 23.8143H117.066C117.026 20.84 115.811 19.2554 113.535 19.2554ZM145.444 19.2554C143.129 19.2554 141.682 21.1285 141.682 24.1034C141.682 27.0777 143.129 28.8177 145.617 28.8177C147.507 28.8177 148.742 27.6383 148.993 25.6485H148.22C147.99 27.2908 147.142 28.18 145.773 28.18C144.017 28.18 143.245 26.8285 143.226 23.8143H148.974C148.935 20.84 147.72 19.2554 145.444 19.2554ZM160.95 19.4868L160.504 21.9983H160.892C161.586 20.26 161.894 19.9891 163.149 19.9891H165.52L160.293 28.6045H166.928L167.431 25.8234H167.026C166.446 27.5811 165.907 28.1023 164.594 28.1023H162.339L167.585 19.4868H160.95ZM71.0565 19.7571C72.3103 19.7571 72.9464 20.8388 73.0628 23.1188H68.8955C69.0885 20.8977 69.8216 19.7571 71.0565 19.7571ZM95.1162 19.7571C96.37 19.7571 97.0066 20.8388 97.1225 23.1188H92.9551C93.1481 20.8977 93.8812 19.7571 95.1162 19.7571ZM113.516 19.7571C114.77 19.7571 115.406 20.8388 115.522 23.1188H111.356C111.548 20.8977 112.282 19.7571 113.516 19.7571ZM145.425 19.7571C146.678 19.7571 147.315 20.8388 147.431 23.1188H143.264C143.456 20.8977 144.19 19.7571 145.425 19.7571ZM103.95 19.9114C105.377 19.9114 106.11 21.3811 106.11 24.22C106.11 26.9051 105.397 28.2948 104.008 28.2948C102.619 28.2948 101.887 26.8468 101.887 24.0845C101.887 21.2834 102.561 19.9114 103.95 19.9114ZM133.827 22.1731H135.66C136.682 22.1731 137.26 22.3457 137.704 22.7903C138.148 23.2348 138.397 24.0645 138.397 24.992C138.397 26.9234 137.433 28.0063 135.716 28.0063H135.023C134 28.0063 133.827 27.8503 133.827 27.0005V22.1731ZM126.09 22.9388V23.9377H130.401V22.9388H126.09ZM21.9255 8.30968C21.9255 8.03254 21.8415 8.0234 21.8193 8.2994L20.9366 21.4743L21.8147 21.9885L21.9249 8.31025L21.9255 8.30968ZM17.8055 24.552L21.511 22.4965L20.6694 22.028L17.7016 24.46C17.536 24.6023 17.6103 24.6611 17.8055 24.552Z" fill="#B7BFC7"/>
<path d="M21.9889 1.25366C10.2388 1.24795 0.708557 10.6937 0.708557 22.3348C0.708557 33.976 10.2319 43.412 21.9889 43.416C33.7458 43.4194 43.2777 33.976 43.2777 22.3348C43.2777 10.6931 33.7543 1.25366 21.9889 1.25366ZM21.9889 42.6131C13.9922 42.6131 7.71749 38.4508 4.72916 32.7274L5.19105 32.5577C5.96754 33.8257 6.98211 34.9405 8.34496 36.4474C10.0247 38.2954 15.3368 41.8645 21.9849 41.8645C25.3404 41.8767 28.6432 41.0299 31.5796 39.4045C34.5166 37.7787 36.9896 35.4285 38.7638 32.5771C39.0322 32.5017 39.1178 32.3851 39.0287 32.1514C40.6268 29.3325 41.7122 25.7914 41.7122 22.3308C41.7122 20.1514 41.3925 18.3782 40.886 16.7937C40.5726 15.8176 40.1911 14.8648 39.7441 13.9422C39.6936 13.8608 39.6674 13.7666 39.6688 13.6708C39.7493 13.732 39.8144 13.8114 39.8583 13.9022C40.1672 14.4668 40.8592 15.8497 41.1841 16.7497C41.6225 17.9508 42.4036 19.6137 42.4036 22.3308C42.4082 33.4222 33.3341 42.6194 21.9889 42.6131ZM4.9484 32.2371L19.8518 21.5108L18.5769 20.7828L5.29896 31.8342C3.80765 29.1285 2.77196 25.6542 2.77196 22.3502C2.77196 11.8874 11.0906 3.41652 21.6234 3.35195L18.9063 20.2737L20.1761 21.0125L21.8832 3.35481C21.9152 3.13195 22.0676 3.13195 22.0676 3.35481L22.1681 21.9754L25.1924 20.1977L22.2943 3.34795C32.6467 3.62509 41.2235 11.9857 41.2235 22.3171C41.2235 25.6485 40.2186 29.1285 38.6959 31.8514L25.4317 20.7885L24.1545 21.5188L38.411 31.8714C38.7535 32.1154 38.6485 32.2262 38.2842 32.0228L22.2749 22.7782V26.2428L38.3208 32.3817C34.9579 37.8731 28.8922 41.3862 21.9477 41.3862C14.9879 41.3862 9.01982 37.8748 5.65695 32.3748L21.7314 26.2319V22.768L5.08486 32.3965C4.68976 32.6142 4.58528 32.4925 4.9484 32.2371ZM4.53846 32.4428C3.83449 30.9817 3.09283 28.9228 2.78566 27.2942C2.77081 27.2085 2.77424 27.1205 2.79708 27.0371C2.84846 27.1137 2.88729 27.1982 2.91412 27.2868C3.39657 28.7817 3.81793 30.1262 4.91871 32.1457L4.53846 32.4428ZM42.3733 18.7582C42.3226 18.6847 42.2835 18.6037 42.2574 18.5182C40.7016 13.7137 39.3764 11.8262 36.8226 9.01938C33.4574 5.32338 27.9649 2.46566 22.119 2.45938C10.9456 2.45824 1.88128 11.5371 1.88128 22.7245C1.88128 26.0502 2.60581 28.9234 3.18818 30.3662C3.87046 32.0394 5.05174 34.2931 5.11055 34.3948C5.15223 34.4777 5.17335 34.5697 5.17335 34.6628C5.09662 34.6014 5.03196 34.5262 4.98266 34.4411C4.64409 33.9485 3.25612 31.4457 2.8262 30.3514C1.88128 27.9708 1.18758 25.3737 1.18758 22.648C1.18758 11.1177 10.5066 1.76738 22.0294 1.76738C32.323 1.76738 40.6211 8.92738 42.3733 18.5114C42.3905 18.5931 42.3905 18.6771 42.3733 18.7582Z" fill="#B7BFC7"/>
<path d="M34.3407 29.3502L23.37 21.9885L22.4679 22.5045L34.2882 29.4342C34.4983 29.5554 34.5428 29.48 34.3407 29.3502Z" fill="#B7BFC7"/>
</svg>
