<svg width="163" height="32" viewBox="0 0 163 32" fill="none" xmlns="http://www.w3.org/2000/svg">
<g clip-path="url(#clip0_4_84)">
<path d="M97.018 9.46566V6.14197H85.1483V23.2427H97.018V19.7743H89.9539V15.9835H95.829V12.6639H89.9539V9.46566H97.018Z" fill="#B7BFC7"/>
<path d="M117.949 19.8682H110.533V6.14197H105.668V23.2427H117.949V19.8682Z" fill="#B7BFC7"/>
<path d="M157.129 12.6591C153.847 11.9203 152.697 11.8347 152.697 10.5301C152.697 9.31958 154.324 8.94304 155.26 8.94304C156.773 8.94304 158.56 9.29558 160.382 10.2284L161.706 7.0816C159.84 6.06515 157.445 5.64197 155.141 5.64197C150.614 5.64197 147.576 7.47666 147.449 11.0534C147.32 14.3154 149.975 15.5356 152.415 16.039C154.767 16.5246 157.154 16.9402 157.202 18.336C157.245 19.6233 156.086 20.1747 153.899 20.1747C151.875 20.1747 149.991 19.5246 148.067 18.7194L146.942 22.1398C149.154 23.0794 151.4 23.5972 153.715 23.5972C156.93 23.5972 159.277 23.0959 161.004 21.4759C162.202 20.3634 162.594 19.0205 162.594 17.7386C162.597 15.0356 160.91 13.513 157.129 12.6591Z" fill="#B7BFC7"/>
<path d="M78.2473 9.5178V6.14197H63.3176V9.5178H68.3615V23.2427H73.1973V9.5178H78.2473Z" fill="#B7BFC7"/>
<path d="M134.545 6.14197V17.0067C134.545 17.8579 134.545 18.0931 134.494 18.4244C134.337 19.4601 133.333 20.061 131.731 20.0822C130.544 20.063 129.675 19.7125 129.27 19.0931C129.067 18.7749 128.968 18.2029 128.968 17.2894V6.14197H123.922V17.9272C123.922 19.5602 124.141 20.2976 124.88 21.2296C126.097 22.7502 128.471 23.5499 131.741 23.5499C131.777 23.5499 131.809 23.5499 131.848 23.5499C131.865 23.5499 131.895 23.5499 131.92 23.5499C136.297 23.5499 138.558 21.8449 139.21 20.2496C139.537 19.4759 139.561 19.1096 139.561 17.5486V6.14197H134.545Z" fill="#B7BFC7"/>
<path d="M65.5963 1.4596L37.3032 7.08645V9.05762L37.3932 9.03431C56.084 4.49593 65.5957 1.76619 65.6726 1.74698C65.7783 1.71954 65.8154 1.63725 65.801 1.56797C65.7852 1.49527 65.7089 1.43491 65.5963 1.4596Z" fill="#B7BFC7"/>
<path d="M42.5928 0.921916C41.2175 1.0001 38.6709 3.03507 37.273 4.24357C31.7066 9.05423 27.5677 13.476 24.5583 18.107C18.2848 21.4636 10.2851 24.9156 2.34373 27.6096L2.15217 27.6741L0.623779 31.7852L1.49646 31.4484C6.54853 29.5253 14.9808 25.9135 22.6248 21.8985C22.1943 23.0452 21.9773 24.0994 21.9773 25.0603C21.9773 25.777 22.0975 26.4437 22.3372 27.0493C22.8178 28.2591 23.7652 29.1755 25.0788 29.696C27.0349 30.4759 29.7037 30.4903 32.7489 29.5692C40.5281 27.2139 49.7555 19.9822 51.7645 18.5438L51.8414 18.4897C51.9203 18.4328 51.9259 18.347 51.8929 18.2887C51.8489 18.2222 51.7563 18.2044 51.6801 18.251L51.5812 18.3107C49.4252 19.6035 38.9489 25.8168 32.1391 27.6412C28.6704 28.5706 26.027 28.063 25.03 26.6701C24.684 26.194 24.5171 25.5918 24.5171 24.8895C24.5171 23.5184 25.1632 21.7729 26.4074 19.8326C27.5526 19.1818 28.6224 18.5453 29.5863 17.9403C36.2299 14.2106 43.8843 6.95891 44.2111 2.53233C44.2125 2.50215 44.2125 2.46717 44.2125 2.43425C44.2125 2.05222 44.0471 1.65923 43.7566 1.3691C43.4449 1.05155 43.0343 0.89311 42.5928 0.921916ZM41.8519 3.03164C42.2879 2.74975 42.4136 2.92601 42.2852 3.24426C42.0779 3.75249 41.1186 6.81008 33.9965 12.651C32.1378 14.1715 30.8161 15.0254 28.1397 16.6083C32.5223 10.4733 38.9208 4.93286 41.8519 3.03164Z" fill="#B7BFC7"/>
<path d="M37.2107 7.10498L7.44342 13.4965L6.29541 16.5891L37.3033 9.05695L38.2626 8.51581L38.2358 7.10842L37.2107 7.10498Z" fill="#B7BFC7"/>
</g>
<defs>
<clipPath id="clip0_4_84">
<rect width="163" height="32" fill="white"/>
</clipPath>
</defs>
</svg>
